<svg width="353" height="138" viewBox="0 0 353 138" fill="none" xmlns="http://www.w3.org/2000/svg">
<path d="M66.084 57.6789L56.6892 36.3842L25.9998 105.905H44.7892L66.084 57.6789Z" fill="#255CB4"/>
<path d="M59.8212 32H77.9844L92.3896 65.1948H74.2265L59.8212 32Z" fill="#255CB4"/>
<path d="M91.7633 106.532L83.6211 87.7422H102.411L110.553 106.532H91.7633Z" fill="#255CB4"/>
<path d="M145 105.905L112.432 32H94.2684L109.3 67.7H64.2052L56.6894 85.2369H116.816L126.211 105.905H145Z" fill="#255CB4"/>
<path d="M161.49 71.8516H162.148C163.133 71.8516 163.791 71.6815 164.122 71.3413C164.454 71.0011 164.834 70.3477 165.264 69.3809C165.702 68.4051 166.262 67.1563 166.942 65.6345C167.631 64.1038 168.5 62.1746 169.547 59.8472C170.594 57.5107 171.351 55.8278 171.816 54.7983C172.282 53.7689 172.685 52.8871 173.025 52.1531C173.365 51.4101 173.598 50.8909 173.723 50.5955C173.848 50.3 173.987 49.9778 174.139 49.6287L179.739 35.9995H180.894C183.114 41.7913 185.92 48.7961 189.313 57.0139C192.705 65.2227 194.581 69.6628 194.939 70.3342C195.297 71.0056 195.664 71.4264 196.04 71.5964C196.425 71.7665 196.953 71.8516 197.625 71.8516H198.444L198.39 74H185.848L185.902 71.8516H187.554C188.467 71.8516 189.098 71.8158 189.447 71.7441C189.796 71.6636 189.971 71.4801 189.971 71.1936C189.971 70.9877 189.886 70.6789 189.716 70.2671C189.554 69.8464 189.456 69.5868 189.42 69.4883L185.352 59.4846H172.595L168.245 69.166C167.878 70.0612 167.694 70.6833 167.694 71.0325C167.694 71.3816 167.833 71.6054 168.11 71.7039C168.397 71.8023 169.01 71.8516 169.95 71.8516H172.206V74H161.544L161.49 71.8516ZM173.643 57.0542H184.425L179.202 44.0293L173.643 57.0542ZM207.448 74V71.8516H209.153C210.057 71.8516 210.585 71.7979 210.737 71.6904C210.89 71.5741 210.988 71.4398 211.033 71.2876C211.096 71.1175 211.127 70.7729 211.127 70.2537V41.4915C211.127 40.5784 211.015 40.0323 210.791 39.8533C210.496 39.6295 209.909 39.5176 209.032 39.5176H207.609L207.663 37.3154H218.996C222.755 37.3154 225.154 37.4631 226.193 37.7585C227.929 38.2509 229.398 38.9849 230.597 39.9607C231.797 40.9275 232.822 42.2434 233.672 43.9084C234.522 45.5645 234.948 47.4355 234.948 49.5212C234.948 52.7797 233.583 55.4071 230.852 57.4033C228.901 58.8267 226.394 59.5383 223.333 59.5383C220.996 59.5383 218.566 59.1937 216.041 58.5044C215.746 58.4238 215.594 58.3835 215.585 58.3835V70.2537C215.585 71.0235 215.742 71.4666 216.055 71.583C216.52 71.762 217.608 71.8516 219.318 71.8516H222.071V74H207.448ZM215.585 56.7319C216.516 57.4302 218.338 57.7793 221.05 57.7793C223.762 57.7793 225.893 57.0676 227.442 55.6443C228.999 54.2209 229.778 52.1441 229.778 49.4138C229.778 45.6899 228.05 42.9327 224.595 41.1423C222.509 40.0592 220.056 39.5176 217.237 39.5176C216.592 39.5176 216.18 39.625 216.001 39.8398C215.724 40.18 215.585 40.9141 215.585 42.042V56.7319ZM256.574 71.4756C263.905 71.404 268.269 71.31 269.666 71.1936C271.071 71.0772 271.873 70.9206 272.069 70.7236C272.266 70.5267 272.414 70.285 272.513 69.9985C272.62 69.7031 272.915 68.1052 273.399 65.2048L275.279 65.4734L273.896 74H246.02V71.8516H247.443C248.813 71.8516 249.596 71.7844 249.793 71.6501C249.999 71.5069 250.142 71.3413 250.223 71.1533C250.312 70.9206 250.357 70.4596 250.357 69.7703V41.8809C250.357 40.7887 250.16 40.1084 249.766 39.8398C249.426 39.625 248.338 39.5176 246.503 39.5176H244.972L244.919 37.3154H273.238C273.291 40.4754 273.385 43.3534 273.52 45.9495L271.371 46.0569C271.237 42.4403 270.964 40.4128 270.552 39.9741C270.427 39.8398 270.216 39.7593 269.921 39.7324C269.635 39.6966 268.78 39.6787 267.356 39.6787H257.997C256.484 39.6787 255.625 39.7593 255.419 39.9204C255.213 40.0815 255.065 40.2785 254.976 40.5112C254.869 40.7798 254.815 41.3661 254.815 42.2703V49.9106C254.815 50.9849 254.869 51.5846 254.976 51.71C255.092 51.8263 255.227 51.9159 255.379 51.9785C255.576 52.068 255.992 52.1128 256.628 52.1128H264.939C265.906 52.1128 266.461 52.0188 266.604 51.8308C266.748 51.6339 266.846 51.419 266.9 51.1863C266.98 50.8819 267.021 50.2732 267.021 49.3601V47.2654L269.062 47.3191V60.4648H267.021V57.6047C267.021 56.074 266.945 55.2146 266.792 55.0266C266.64 54.8386 266.533 54.7267 266.47 54.6909C266.416 54.6462 266.296 54.6104 266.108 54.5835C265.929 54.5477 265.781 54.5298 265.664 54.5298H256.789C255.876 54.5298 255.33 54.6193 255.151 54.7983C254.927 55.04 254.815 55.519 254.815 56.2351V69.2197C254.815 70.1686 254.927 70.7818 255.151 71.0593C255.374 71.3368 255.849 71.4756 256.574 71.4756ZM283.732 74V71.8516C283.732 71.8516 284.131 71.8516 284.927 71.8516C285.205 71.8516 285.514 71.8292 285.854 71.7844C286.203 71.7397 286.445 71.7128 286.579 71.7039C286.722 71.686 286.924 71.6099 287.183 71.4756C287.452 71.3413 287.631 71.2384 287.72 71.1667C287.81 71.0951 287.989 70.9295 288.257 70.6699C288.535 70.4103 288.741 70.2 288.875 70.0388C289.009 69.8687 289.265 69.5733 289.64 69.1526C290.016 68.7319 290.339 68.3693 290.607 68.0649L301.108 56.1814L290.272 42.4851C290.164 42.3419 289.985 42.1181 289.734 41.8137C289.493 41.5004 289.309 41.2677 289.184 41.1155C289.068 40.9543 288.893 40.7619 288.66 40.5381C288.436 40.3053 288.289 40.1576 288.217 40.095C288.146 40.0234 287.989 39.9338 287.747 39.8264C287.505 39.71 287.331 39.6474 287.223 39.6384C287.125 39.6205 286.906 39.5981 286.566 39.5713C286.234 39.5355 285.961 39.5176 285.746 39.5176H284.659V37.3154H298.637V39.5176H297.147C296.216 39.5176 295.598 39.5489 295.294 39.6116C294.989 39.6653 294.837 39.8085 294.837 40.0413C294.837 40.274 294.94 40.5649 295.146 40.9141C295.352 41.2632 295.907 42.0599 296.811 43.3042L303.968 52.8782L311.34 44.5798C313.193 42.4672 314.186 41.2677 314.321 40.9812C314.455 40.6947 314.522 40.4441 314.522 40.2292C314.522 39.9249 314.33 39.7324 313.945 39.6519C313.569 39.5623 312.902 39.5176 311.944 39.5176H310.4L310.453 37.3154H322.23V39.5176H321.236C320.001 39.5176 319.275 39.5937 319.061 39.7458C318.855 39.8891 318.658 40.0234 318.47 40.1487C318.282 40.274 318.134 40.3949 318.027 40.5112C317.928 40.6276 317.776 40.7932 317.57 41.0081C317.364 41.2229 317.203 41.3975 317.087 41.5317C316.97 41.6571 316.894 41.7376 316.858 41.7734C316.832 41.8003 316.796 41.8406 316.751 41.8943C316.706 41.948 316.662 41.9972 316.617 42.042L305.338 54.4761L312.387 63.4458C315.547 67.4831 317.427 69.7747 318.027 70.3208C318.626 70.8579 319.025 71.1891 319.222 71.3145C319.419 71.4308 319.665 71.5427 319.96 71.6501C320.327 71.7844 320.864 71.8516 321.572 71.8516H322.498L322.552 74H308.372V71.8516H309.688C310.655 71.8516 311.353 71.8113 311.783 71.7307C312.221 71.6412 312.441 71.4443 312.441 71.1399C312.441 70.9698 312.333 70.7281 312.119 70.4148C311.904 70.0925 311.259 69.2332 310.185 67.8367L302.424 57.8867L292.527 69.3271C291.686 70.2671 291.265 70.8892 291.265 71.1936C291.265 71.498 291.417 71.686 291.722 71.7576C292.026 71.8202 292.608 71.8516 293.467 71.8516H295.441V74H283.732Z" fill="#255CB4"/>
<path d="M164.705 85.6992V84.6582H171.173V85.6992H170.5C169.848 85.6992 169.47 85.7415 169.364 85.8262C169.258 85.9108 169.182 85.9976 169.135 86.0864C169.059 86.2303 169.021 86.4821 169.021 86.8418V91.7803H177.47V86.6323C177.47 86.1711 177.43 85.9172 177.349 85.8706C177.273 85.8198 177.174 85.7796 177.051 85.75C176.915 85.7161 176.604 85.6992 176.118 85.6992H175.026L175 84.6582H181.602V85.6992H180.872C180.297 85.6992 179.96 85.7394 179.863 85.8198C179.77 85.9002 179.704 85.9827 179.666 86.0674C179.607 86.2028 179.577 86.444 179.577 86.791V99.918C179.577 100.417 179.655 100.72 179.812 100.826C179.973 100.931 180.413 100.984 181.132 100.984H182.021L181.989 102H175.521L175.489 100.984H176.245C176.816 100.984 177.144 100.944 177.229 100.864C177.313 100.783 177.372 100.694 177.406 100.597C177.449 100.462 177.47 100.21 177.47 99.8418V93.0308H169.021V99.8418C169.021 100.362 169.12 100.686 169.319 100.813C169.493 100.927 170.015 100.984 170.887 100.984H171.643L171.592 102H164.933L164.908 100.984C165.28 100.984 165.585 100.984 165.822 100.984C166.059 100.984 166.234 100.976 166.349 100.959C166.467 100.942 166.548 100.929 166.59 100.921C166.636 100.912 166.687 100.883 166.742 100.832C166.801 100.777 166.835 100.733 166.844 100.699C166.856 100.665 166.871 100.595 166.888 100.489C166.905 100.379 166.914 100.286 166.914 100.21V86.5562C166.914 86.1541 166.818 85.9108 166.628 85.8262C166.442 85.7415 166.025 85.6992 165.377 85.6992H164.705ZM191.217 100.984H191.529C191.994 100.984 192.305 100.904 192.462 100.743C192.618 100.582 192.798 100.273 193.001 99.8164C193.209 99.3551 193.473 98.7648 193.795 98.0454C194.12 97.3218 194.531 96.4098 195.026 95.3096C195.521 94.2051 195.879 93.4095 196.099 92.9229C196.319 92.4362 196.509 92.0194 196.67 91.6724C196.831 91.3211 196.941 91.0757 197 90.936C197.059 90.7964 197.125 90.644 197.197 90.479L199.844 84.0361H200.39C201.439 86.7741 202.766 90.0854 204.37 93.9702C205.974 97.8507 206.86 99.9497 207.029 100.267C207.199 100.584 207.372 100.783 207.55 100.864C207.732 100.944 207.982 100.984 208.299 100.984H208.686L208.661 102H202.732L202.758 100.984H203.538C203.97 100.984 204.268 100.967 204.433 100.934C204.598 100.896 204.681 100.809 204.681 100.673C204.681 100.576 204.641 100.43 204.56 100.235C204.484 100.036 204.438 99.9137 204.421 99.8672L202.497 95.1382H196.467L194.41 99.7148C194.237 100.138 194.15 100.432 194.15 100.597C194.15 100.762 194.216 100.868 194.347 100.915C194.482 100.961 194.772 100.984 195.217 100.984H196.283V102H191.243L191.217 100.984ZM196.962 93.9893H202.059L199.59 87.832L196.962 93.9893ZM224.535 94.021C223.473 94.021 222.684 93.9681 222.167 93.8623V100.229C222.167 100.589 222.248 100.8 222.409 100.864C222.612 100.944 223.13 100.984 223.964 100.984H225.29L225.24 102H218.321V100.984H218.917C219.472 100.984 219.785 100.963 219.857 100.921C219.929 100.874 219.98 100.815 220.009 100.743C220.047 100.667 220.066 100.496 220.066 100.229V86.6323C220.066 86.1499 219.87 85.8643 219.476 85.7754C219.256 85.7246 218.932 85.6992 218.505 85.6992H217.775L217.8 84.6582H223.78C225.159 84.6582 226.234 84.7471 227.004 84.9248C227.779 85.0983 228.466 85.4305 229.067 85.9214C229.672 86.408 230.134 86.9709 230.451 87.6099C230.773 88.2446 230.933 88.8096 230.933 89.3047C230.933 89.7998 230.893 90.2061 230.813 90.5234C230.737 90.8408 230.606 91.1603 230.419 91.4819C230.237 91.7993 230.007 92.0913 229.727 92.3579C229.11 92.9461 228.272 93.3778 227.214 93.6528L232.203 100.286C232.44 100.582 232.637 100.773 232.793 100.857C232.95 100.942 233.128 100.984 233.327 100.984H234.444L234.495 102H230.724L225.157 93.9893L224.535 94.021ZM222.167 93.0054C222.375 93.1789 222.931 93.2656 223.837 93.2656C225.411 93.2656 226.558 92.9948 227.277 92.4531C227.997 91.9115 228.356 91.0715 228.356 89.9331C228.356 88.6805 227.895 87.667 226.973 86.8926C226.025 86.097 224.683 85.6992 222.948 85.6992C222.643 85.6992 222.449 85.75 222.364 85.8516C222.233 86.0124 222.167 86.3594 222.167 86.8926V93.0054ZM244.694 102.73C244.554 101.951 244.216 100.235 243.678 97.582L244.592 97.4741L244.929 99.0864C245.047 99.6535 245.14 99.9793 245.208 100.064C245.28 100.144 245.365 100.218 245.462 100.286C245.564 100.35 245.657 100.396 245.741 100.426C245.826 100.455 246.063 100.54 246.452 100.68C247.332 100.989 248.194 101.143 249.036 101.143C249.882 101.143 250.566 101.02 251.086 100.775C251.607 100.529 252.028 100.163 252.349 99.6768C252.671 99.1901 252.832 98.7098 252.832 98.2358C252.832 97.7576 252.768 97.3704 252.641 97.0742C252.514 96.778 252.353 96.5135 252.159 96.2808C251.968 96.048 251.719 95.8089 251.41 95.5635C250.936 95.1911 250.301 94.7891 249.505 94.3574L248.439 93.7607C247.381 93.1683 246.7 92.7261 246.395 92.4341C246.09 92.1421 245.841 91.8776 245.646 91.6406C245.456 91.4036 245.303 91.1603 245.189 90.9106C244.931 90.3478 244.802 89.7384 244.802 89.0825C244.802 88.4224 244.95 87.8003 245.246 87.2163C245.542 86.6323 245.932 86.1414 246.414 85.7437C247.459 84.8804 248.646 84.4487 249.975 84.4487C250.635 84.4487 251.226 84.5355 251.746 84.709C252.267 84.8825 252.563 84.9692 252.635 84.9692C252.707 84.9692 252.775 84.9142 252.838 84.8042C252.906 84.6899 252.948 84.5207 252.965 84.2964L253.847 84.2393L254.234 89L253.301 89.0254L253.067 86.7148C252.516 86.2874 251.733 85.9785 250.718 85.7881C250.324 85.7119 249.893 85.6738 249.423 85.6738C248.957 85.6738 248.496 85.7902 248.039 86.0229C247.582 86.2557 247.214 86.5858 246.935 87.0132C246.655 87.4406 246.516 87.8553 246.516 88.2573C246.516 88.6593 246.554 88.9852 246.63 89.2349C246.706 89.4803 246.82 89.7109 246.973 89.9268C247.129 90.1426 247.299 90.3436 247.481 90.5298C247.663 90.716 247.887 90.9043 248.153 91.0947C248.564 91.3867 249.101 91.7189 249.766 92.0913L251.194 92.8721C252.214 93.4391 252.899 93.8835 253.251 94.2051C253.606 94.5267 253.879 94.8018 254.069 95.0303C254.264 95.2546 254.423 95.4831 254.546 95.7158C254.808 96.2279 254.939 96.759 254.939 97.3091C254.939 97.855 254.857 98.3649 254.692 98.8389C254.531 99.3086 254.283 99.7508 253.949 100.166C253.619 100.576 253.221 100.934 252.755 101.238C251.757 101.903 250.517 102.235 249.036 102.235C248.198 102.235 247.517 102.157 246.992 102C246.467 101.843 246.143 101.765 246.021 101.765C245.707 101.765 245.551 101.947 245.551 102.311L245.576 102.647L244.694 102.73ZM264.967 85.6992V84.6582H271.435V85.6992H270.762C270.111 85.6992 269.732 85.7415 269.626 85.8262C269.52 85.9108 269.444 85.9976 269.398 86.0864C269.322 86.2303 269.283 86.4821 269.283 86.8418V91.7803H277.732V86.6323C277.732 86.1711 277.692 85.9172 277.612 85.8706C277.535 85.8198 277.436 85.7796 277.313 85.75C277.178 85.7161 276.867 85.6992 276.38 85.6992H275.288L275.263 84.6582H281.865V85.6992H281.135C280.559 85.6992 280.223 85.7394 280.125 85.8198C280.032 85.9002 279.967 85.9827 279.929 86.0674C279.869 86.2028 279.84 86.444 279.84 86.791V99.918C279.84 100.417 279.918 100.72 280.075 100.826C280.235 100.931 280.675 100.984 281.395 100.984H282.283L282.252 102H275.783L275.752 100.984H276.507C277.078 100.984 277.406 100.944 277.491 100.864C277.576 100.783 277.635 100.694 277.669 100.597C277.711 100.462 277.732 100.21 277.732 99.8418V93.0308H269.283V99.8418C269.283 100.362 269.383 100.686 269.582 100.813C269.755 100.927 270.278 100.984 271.15 100.984H271.905L271.854 102H265.196L265.17 100.984C265.543 100.984 265.847 100.984 266.084 100.984C266.321 100.984 266.497 100.976 266.611 100.959C266.73 100.942 266.81 100.929 266.852 100.921C266.899 100.912 266.95 100.883 267.005 100.832C267.064 100.777 267.098 100.733 267.106 100.699C267.119 100.665 267.134 100.595 267.151 100.489C267.168 100.379 267.176 100.286 267.176 100.21V86.5562C267.176 86.1541 267.081 85.9108 266.89 85.8262C266.704 85.7415 266.287 85.6992 265.64 85.6992H264.967ZM291.48 85.6992L291.505 84.6582H298.031V85.6992H297.586C296.986 85.6992 296.634 85.7161 296.533 85.75C296.435 85.7796 296.351 85.8156 296.279 85.8579C296.207 85.9002 296.158 85.9489 296.133 86.0039C296.112 86.0547 296.086 86.1245 296.057 86.2134C296.019 86.3446 296 86.571 296 86.8926V99.791C296 100.35 296.046 100.669 296.139 100.75C296.236 100.826 296.344 100.881 296.463 100.915C296.624 100.961 296.937 100.984 297.402 100.984H298.418L298.443 102H291.791L291.766 100.984H292.438C293.116 100.984 293.505 100.946 293.606 100.87C293.712 100.79 293.784 100.699 293.822 100.597C293.873 100.462 293.898 100.21 293.898 99.8418V86.6323C293.898 86.1795 293.856 85.9256 293.771 85.8706C293.691 85.8156 293.594 85.7754 293.479 85.75C293.344 85.7161 293.042 85.6992 292.572 85.6992H291.48ZM307.659 84.6582H314.679C317.227 84.6582 319.032 84.8275 320.094 85.166C321.529 85.623 322.684 86.4355 323.56 87.6035C324.622 89.0254 325.153 90.7139 325.153 92.6689C325.153 95.3011 324.279 97.5059 322.531 99.2832C320.746 101.094 318.179 102 314.832 102H308.122L308.097 100.984H308.801C309.436 100.984 309.8 100.946 309.893 100.87C309.991 100.79 310.056 100.699 310.09 100.597C310.132 100.47 310.154 100.218 310.154 99.8418V86.6323C310.154 86.1795 310.111 85.9256 310.027 85.8706C309.946 85.8156 309.849 85.7754 309.735 85.75C309.599 85.7161 309.297 85.6992 308.827 85.6992H307.735L307.659 84.6582ZM312.261 99.791C312.261 100.24 312.288 100.506 312.343 100.591C312.403 100.675 312.473 100.745 312.553 100.8C312.638 100.851 312.726 100.885 312.82 100.902C312.913 100.915 313.044 100.929 313.213 100.946C313.425 100.972 313.92 100.984 314.698 100.984C315.477 100.984 316.256 100.906 317.034 100.75C317.813 100.593 318.484 100.379 319.047 100.108C319.614 99.8376 320.117 99.5096 320.557 99.1245C320.997 98.7394 321.357 98.3311 321.636 97.8994C321.916 97.4635 322.146 96.9917 322.328 96.4839C322.654 95.5741 322.817 94.7129 322.817 93.9004C322.817 93.0837 322.766 92.4172 322.665 91.9009C322.563 91.3804 322.402 90.8683 322.182 90.3647C321.962 89.8612 321.691 89.3872 321.37 88.9429C321.048 88.4985 320.653 88.0881 320.183 87.7114C319.717 87.3348 319.199 87.0111 318.628 86.7402C317.413 86.1647 315.966 85.877 314.286 85.877H313.327C313.027 85.877 312.807 85.9023 312.667 85.9531C312.396 86.0589 312.261 86.4419 312.261 87.1021V99.791Z" fill="#255CB4"/>
</svg>
